<?xml version="1.0" encoding="utf-8"?>
<!-- Generator: Adobe Illustrator 18.0.0, SVG Export Plug-In . SVG Version: 6.00 Build 0)  -->
<!DOCTYPE svg PUBLIC "-//W3C//DTD SVG 1.1 Tiny//EN" "http://www.w3.org/Graphics/SVG/1.1/DTD/svg11-tiny.dtd">
<svg version="1.1" baseProfile="tiny" id="Layer_1" xmlns="http://www.w3.org/2000/svg" xmlns:xlink="http://www.w3.org/1999/xlink"
	 x="0px" y="0px" viewBox="0 0 25 25" xml:space="preserve">
<g id="_x37_70-paper-clip_x40_2x.png">
	<path d="M23.8,2c-1.6-1.6-4.1-1.6-5.6,0L5.3,15c-1,1-1,2.7,0,3.8c1,1,2.7,1,3.8,0l9.1-9.2c0.2-0.2,0.2-0.5,0-0.6
		c-0.2-0.2-0.5-0.2-0.6,0l-7.7,7.8l-1.4,1.4c-0.7,0.7-1.8,0.7-2.5,0c-0.7-0.7-0.7-1.8,0-2.5l2.5-2.5L17,4.4l1.8-1.8
		c1.2-1.2,3.2-1.2,4.4,0c1.2,1.2,1.2,3.2,0,4.4l-3.1,3.2L8.5,22c-1.7,1.7-4.5,1.7-6.3,0c-1.7-1.7-1.7-4.6,0-6.3l11-11.1
		c0.2-0.2,0.2-0.5,0-0.6c-0.2-0.2-0.5-0.2-0.6,0l0,0L1.6,15c-2.1,2.1-2.1,5.5,0,7.6c2.1,2.1,5.4,2.1,7.5,0L23.8,7.7
		C25.4,6.1,25.4,3.6,23.8,2z"/>
</g>
</svg>
